<svg xmlns="http://www.w3.org/2000/svg" version="1.2" baseProfile="tiny" width="800" height="402" stroke-linecap="round" stroke-linejoin="round"><path d="M1 304.5l8.9-2.8L12 300l.4-.6.4-1 1.1-.6.8-.1.6.2.5.1.8.6 2.3.4 1.2.4 1-1.5 1.8-.4 1.3-1.3 5.7-3-.9-3.7 2.2-.7 4-3.8 5.8-2 1.2-1v-1.1l-3.5-2-.3-.3-.2-.2-.5-.9-.3-.4v-.1h-.1v-.5l.1-.5-.1-.3-1-.5-1-.5-.9-.4-1.5-.6-1-.8-1-.9-.4-.3-.3-.3-.9-.7-.9-.7-.9-.8-.9-.6-.9-.8.4-.5.2-.3.2-.3.5-.5.5-.5.4-.4.3-.5.3-.5.2-.5.3-.4v-.3l.2-1v-.2l.1-.4v-.3l.1-.3v-.2l.1-.2v-.1l.1-.2v-.4l.1-.2v-1.1l-.1-.2v-.1l-.1-.2v-.1l-.6-.3-1.7-.9 1-2.2v-2.2L28 251l-.6-1.2 1.6-2.1 2.5-1.4-.2-1.4.4-.3 2.4-2 1.3-1.8.1-1 .2-.3V237.8l.2-1.6v-.2h.4l.4-.1.9-.2h.8l.7-.2h.4l.6-.1h.3l.6-.2h.2l1.4-.2.8-.1 2.7-.5.3-.2.4-.2 1.2-.7.5-.3.4-.3 1-.8.3-.2 1.2-.9 1-.8 1.1-.9 1.1-.8 1.1-.8.3-.3.8-.6.3-.2.8-.6.6-.5.4-.3 2.2-1.7 1-.8.6-.5.5-.4 1.1-.8.2-.2 1.4-1 1.7-1.4 1-.8 1.1-.8.5-.4.6-.5.8-.6.7-.6 1-.7.1-.1.3-.3.3-.1.3-.2.8-.5h.1v-.1l.5-.2.4-.4 1-.6.1-.1 1-.7 1-.8.7-.4.6-.5.4-.3.8-.6 1-.7h.1l.8-.6.8-.6.3-.2.3-.2.7-.4.9-.5.4-.3.5-.3.4-.3 1-.6 1.2-.8.5-.3.7-.5.6-.4.7-.5.8-.5.6-.5.6-.4.3-.2.1-.1.4-.3.1-.1.4-.2.5-.2h.2l-2-.8-1.3-.4-1.4-.5-1-.4-.7-.1H90l-1.2-.5-.5-.2-.5-.3-1.5-.6-2-.7-1-.1-.4-.2-.4-.1-.3-.2-.6-.2h-.2l-1-.4-1-.4-1.2-.6-1-.5-1-.4-.7-.3-.4-.1-.4-.2-.5-.1-.3-.2-.7-.3-1-.4-.6-.1-.4-.2-1.2-.3h-1.1l-.1-.2-.4-.4-.2-.1-.2-.7-.3-.5-.3-.2-.9-.3-.5-.3h-.6l-1.4.1-1.3.2-2.2.4-1.3.3-1.9.2-2.6.3-.5.2h-.7l-.8.2H52l-1.5.1-2 .3-1.7.3H44.7l-2.9.1-2 .2-1.7.3H35.4l1-3.7.2-.7v-2.1l.2-.8v-.9l.2-1 .1-1 .1-.6.1-1v-.4l.2-1v-1.2l.2-.3v-.1l.1-.5.2-.5.2-.6.1-.4.2-.4.2-.4.3-.5.3-.4.3-.3.4-.5v-.4l.2-.3v-.2l.1-.1.1-.3v-.2l.2-.3V167.6l.2-.1.1-.1.2-.2.1-.3.2-.2.2-.2v-.2l.3-.2v-.1l.3-.3.3-.5.2-.5v-.4l.2-.3.4-1v-.2h.2l.1-.5.2-.6.2-.4.2-.6.1-.5.2-.4.2-.6v-.3l.2-.5v-.4l.2-.3v-.2l-.7-.3.4-.7.1-.3.2-.5.1-.5.2-.4.3-.5v-.2l.1-.1.3-.5.2-.3.2-.6.2-.4v-.1l.1-.1.2-.4.2-.4.1-.3.2-.5.2-.3.3-.8.3-.6.3-.6.4-1 .2-.4v-.1l.1-.3.2-.3v-.2l.4-.8.4-.9v-.2l.1-.1.2-.4.2-.3.1-.3h.5v.1h.2l.2.2h.1l.3.3.5.2.5.3.2.1.4.4.5.5.3.2v.1l.3.2.8.5 1 .3 1.2.4.5.1h.6l.6.1h1.8l.8.1h1.6l1.5.3.8.2h1.2l.4-.6.3.1h.5l.1-.1.3-.2.2-.1.1-.1.2-.5.3-.4.2-.3.2-.2.4-.2.3-.8v-.5l.1-.6-.3-.9-.1-.5v-.7l-.1-1.2-.4-.6-.3-.2-.2-1.3h-.1l-.3-.2.3-.3.5-.2.5-.3.2-.1.1-.1.3-1.2v-.2l.1-.5v-1.6l.3-.4.4-.3.1-.3.5-.4h.1l.4-.4.5-.5.6-.5.2-.4v-.3l.3-.5v-.3l.6-.7.4-.7.1-.6v-.3l1.1-.4.3-.2.1-.3.2-.3.2-.8v-1l.3-.5.3-.2.1-.1.1-.1v-1.6l.2-.2-.2-.7.2-.5-.1-.6-.2-.6.2-.8-.1-.5-.4-.5v-.8l-.3-.3-.1-.1-.4-.7-.2-.3-.5-.5-.4-.6-.3-.7v-.4l-.1-.2-.8-.5-.8-.3-.3-.6-3 .8-1.5.4-1.4.4-1 .5h-1l-1.1.3-1.2.3-.5.2-.7.1-.5.3-.2.1-.3.1H61l-1.7-.1-.9.2h-.2l-.6.3h-.7l-.7.1-1.5.3-1.2.2h-.2l-.4-.3-.5-.5-.2-.3-.2-.5-.3-.9-.3-.6-.4-.7-.3-.3-.4-.2-.4-.1-.8.1H48l.9-1.7.5-1.1.2-.5h-1l.6-1.6.7.1.7.2 1 .2h2l3.3-.6h.3l.3-.2.6-.3 1.7-1 .6-.2 1-.3h.7l2.2-.3h.4l1.5-.4h.2l.3-.1.1-.1.5-.2.6-.2.4-.2.4-.1 1-.3 3.4-1.3.2-.1 1-.8.6-.4 1-.9h.2l.7-.6 1-1 .6-.6.3-.3.3-.1 1.7-1 1.8-1.1 2.4-.4h.4l.3-.1.7-.1 1-.2h.3l2.7-.4.9-.2h.2l2.1 1 1.9 1.1h.8l1 .2h.7l.7.3h.3l1.3.4.6.3.5.3.5.3.4.2.8.2h.5l.8.1h.2l.9.1H107l.6.1 1.1.3.4.1.6.2h.1l.2.1.5.2h.3l.3.1.8.2H112.9l.9.2 1.2.4.3.2.1.1.5.3.5.4 1.3.5.9.3.5.2.9.2.5.2 1 .4.4.3.4.2h.1l.2.2.7.1.3.2.8.1.5.1h.2l.3.1h.2l.4.1h.6l1 .2H128.4l.4.1h.6l1 .3.5.1.7.3h.8l.4.1 1 .2.5.1.7.3h.2l.5.3.5.2.3.1 1 .4 1 .3.5.2.3.1h.1l.4.2 1.6.4.4-1.1.3-1 4.7.1 7.3 1 .9-2 .8-1.6.5-1.1-.5-1.2-.9-1-3.3-2-1.4-.7-3.4-1.6-3.6-2.5-1.2-1-1-1.3-.7-.6-.9-.8-1.6-1.3-1.2-1-.4-.3-.5-.8-.3-.6V82.4l.2-.2.1-.1.3-.2.2-.1.4-.2h.5l.5-.2.9-.2.9-.3.9-.3.3-.2.5-.3.5-.4.2-.2.4-.5.5-.6 1-1.1.7-.8.4-.5 2.3-3.1 2.1-2.8.4-.4 1.4-2 1.2-.6 1.1-.5 1.3-2 .4-.5 1.9-2.5.3-1 .3-1v-1l.3-.8.2-.2-.1-.3h-.1V57h2.2l.7.1 1.5-.2 1.2.2-.2-.2.6.2h.3v.4h.7l1 .3h1l1 .2H172.2l.8-.1 1.1-.1 1.8-.2H180.5l.7-.1.8-.2h.2l.4-.1.3-.1.4-.1h.5l.8.1h.2l1.2.4.8.4.9.2.4.1H190.4l.5-.1.8-.1 1.7.1H196.6l1.1-.1h1.8l1-.1.5-.2h4.8l.8.2.8.3 1.3.1.8.3h.1l.2-1.3v-.5l.2-1v-.5l.1-.6.1-.8.1-.8.1-.7V52l.2-.6v-.6l.2-1.1-.3-.7-.4-1-.2-.4-.3-.5-.3-.5-.2-.3-.5-.4-.2-.3-.4-.4-.3-.4-.3-.5V44l-.2-.7h.2l-.1-.5-.2-.4h.7l2 .4 2.2.3h.3l2.9.4h.8l2.8-.1 2.7-.5h3.1l1.9-.3 2.8-.4h.8l1.1-.2h1l.7-.1v-1.1l.1-.6v-.3l.1-.5.1-1.4.1-.5.1-.6v-.5l.2-.7v-1.3l.1-.6-.4-.6.4.2.1-.7.3-1.6.2-1v-1.3l.1-.6-3.8-.1.2-2v-.5l.2-1.5.2-1.5.4-3.7v-.3l.6.2.7.1h.9l1 .2h.3l.5.2.6.1.6.2H240.4l1 .2 1 .1 1.4.2.8.1h1.4l.3.1H252.7l1 .1h2.1l.3-.1h.8l.9-.1 1-.1 1.7-.2.3.4.3.5h.3l1 .6.1.2-.2.3h.3v.1h.2l.1.1v.1h.2v.1l.4.3h.2l.1-.1h.2v.1l-1.2.4-.7.4-.7.2-1.4.6-1.9.7-1.3.6-2 .8-2.3.9 1 1.1.9 1.1 1 1.2 1 1.3.9 1 1 1.3.6.7 1 1.2.6.8.6.6.4.6.5.6.6-.1h.3l.3 1.4h-.5l.2.9h-.3v.6l-.4.3-.5.5.1.6-.3.2h-.8v.5h-1.2l.6 1.2.2.6.1.5v.2l-1.5.3.2.4.2.3v.3l.3.3.3.3.3.3.2.3.2.2.1.2.3.3v.1l.2.1.2.3.3.4.2.2.3.4.1.2h.2v.2h.2l.4.6.5.7V53.1l.3.4V53.8l.2.4h-.5v.7h.6l-.3.5-.4.2-1 .4-.8.1-.4.1-.9.2h-.8l-.6.3-.8.3-.4.1-1 .2-1.2.3-.5.3v.4l2.8-.4h.5l.4-.1h.6l1.2-.2 1.5-.2h1.5l.7-.1h.8l.2-.1H267.9l.5.1.4.2 1 .3.9.2h.3l.6.1 1 .2.8.2h.2l.8.3.9.1 2 .1h.8l.3.1h.7l.9.1h.3l1.1.3.4.1.5.2.8.1.6.1h.4l.5.1.7.2h.8l.7.3 1.1.4h.2l.2.1.5.2.8.3.2.1h.1l.3.2.4.2.4-.2 2 .8.7.3 1.8.7h.2l.1-.1h.1l.2-.1H296.4l.2-.1H297.5l.2-.1V63h.1l.1-.1H298.3l.1.1H300v.1h.4l.2-.1h.5l.2-.1h.6l.1.1h.2v-.1h.5v-.1H303.8v-.1h.1l.3-.2v-.1h1.7l.3.1h3.1l.8-.1h1.4l1.2-.1.4 1.3h.2v-.1h.1v-.2h.7v.2h.4v-.1l-.1-.1v-.1l.2-.1h.1l.1-.2h.2v-.1h.2l.2.1.2-.1h.2l.1-.1h.2l.2.1h.4v-.2h1v.1h.2l.1.1h.2l.2.2h.7l.1.1H320l.3.2h.2V63l.3-.2h.2v.1h.1l.1.1h.1v-.2h.1l.3-.1H322v.1h.2V62.5h.2l.1-.2h.2V62h.5v.2h.6V62h.4v-.2h.1v-.1h.2l.2-.1H325.5l.2-.1v-.2h.4v-.2h.2l.3-.1H327.3V61h.2v-.1h.1v-.1h.1v.2h.4v.2h-.1v.1h.2V61H329l-.1-.2-.1-.2.1-.1h.4l.1-.1v-.1h.5l.1.1h.2v-.1h.6v.1h.7v-.6l.3.1h.1v-.1l.5-.2v.4l.3.1H333.5l.2-.1.4-.2v-.2h.4V59.4h.2v-.2h.2v-.3h.3l.1-.2v-.2h.2l.3-.2v-.1h.1l.1-.1h.2l.2.2H337V58h.6l.2.1.2-.2h.2v-.1h.2l.2.1.2-.1h.2v-.2l.3-.1H339.7l.2.1h.2v-.3l.5.2V57.3h.2l.3-.2.1-.2.1-.2.3-.1.3.1v.1H342.2l.3.2.2-.1v-.3l-.1-.1-.2-.2h-.1l-.2-.2h.2l.1.1h.7l-.1-.1-.3-.1v-.1H343.2l.2-.1v-.1l-.2-.2v-.2h.1V55l-.2-.2-.1-.2-.2-.2v-.2l-.3-.3v-.2l-.1-.2v-.1h.2v-.1l-.1-.2h-.5V53h.1l.3-.2h.2l.2-.2v-.2H343l.1-.1v-.1l-.3-.2h.2l.3-.1h.1v-.4h-.4l.2-.2h.2v-.2H343.8l.3.1.1-.1V51l.6-.8.3-.1.2-.2 1 .5.4-.3.3-.2-.1-.2h.7l1-.4.2-.1 1.5-.4-.2-.6-.9-.3h.2v-.1l-.1-.1v-.1l-.2-.1v-.1H349.5l.1-.1H350.2l.2.1h.2l.1-.1.1-.1h.1V47h.1v.1l.1.1h.5v.2l.1.1H352v-.1l.1-.1h.1v.1h.2l.2-.1h.2v.1h.4v-.1h-.1v-.1h.1l.1-.1h.6l.2-.2h.5v-.2h.2v-.1h.6l.1-.1h.2l.1-.1h.2v-.1H356.9v-.2l.3-.2h.7v-.1l-.3-.2h.4v-.2l-.2-.1.2-.1.1-.1.1-.1.1-.2v-.1h.2l.2-.2v-.1h-.5.4v-.1h-.2v-.1h.4v-.1l-.1-.1h-.1V44h-.1v-.1h.2v-.2l.3-.1v-.1h.2l.1-.2H359.5l-.1-.1h-.2V43l.1-.1-.2-.2-.1-.2H358.7v-.1h.2l.1-.1v-.1h.1l.1-.1V42h-.2l-.1-.1h-.2v-.2h.1v-.1h-.4V41.4h.2l.4.1h.1l.1-.1v-.1H358.9V41h.4v-.1h-.2V40.5H359.5v-.1l-.1-.1-.3-.1.1-.1H359.8V40h-.2v-.2l.2-.1v-.1h.2l.1-.2v-.2h.2V39h.3v.1h.4v.1h.1V39v.2H361.4V39l.1-.1v-.1H360.5h.2l.2-.1h.5v-.1H360.9v-.1l.3-.1h.1v-.2H361V38h.1V37.7h.1v.1H361.6l-.4-.2v-.2l.2-.1H361.6v-.2l.2-.1h.3l.1-.1v-.1h-.2v-.2h.2v.1h.2l.1-.1-.2-.2.3-.2v-.1h-.1V36l.2-.2h.5l.2-.2V35h.1l.2-.2.2-.2v-.1l.2-.2v-.2h.9l.7.1h.7l.3-.2.2-.1v-.2l.2-.1v-.1l.3-.2h.4l.2-.1h.2v.2l.4.2 1.2.7 1 .5 1.4.8 2.1 1.2 1 .4 1 .4.9.4 1.3.5 1.3 1.1v.1l.2.1h.2l.8-.2 1.6-.2 2.6-.5.6.5.6.4.4.3H388.1v.8l-.3.3-.2.3.9.8.6.4 1.2 1 .3.2.7.3 2 1 1.1.5 1 .4 1 .6 3.1 1.7v-.1l2.7-1.6.5-.3.3-.2.4-.2h3.1l1.9.1h1l1.9-.7-.2-.8-.2-.7-.2-1-.3-.9-.2-.7.2-.8v-.4l.2-.5v-.4l.1-.4v-.3l.1-.2.2-.4h.5l.4-.1.6-.2.5-.1.7-.1.5-.1h.5l.3-.1.5-.1 1-.2h.5l.4-.1h.4l.5-2 .3-1 .2-.9.1-.4.2-.5h.5l.3-.1h.1v.4h.6l.8-.1.1-.3h.4l.1-.2h2.5l.6-.2h.6l.2-.2H426.5l.5-.2h1.5l2.6.2.7.2.1.1h.5v1.1h1.2l3.8.4h.2l3.9.3.4-.3.4-.1.5-.2.5-.1.7-.2h.4l.2-.2.3-.4.2-.3.3-.4.7-.3.2-.1.3-.2h.2l.2-.1h.2l.1-.1h.1l.4-.1.2-.2.3-.1.3-.2.8-.3h.2l.3-.1.1-.2h2.1l.1-.1H453.3l.2-.1h.1l.3-.3.3-.3.8-.4.2-.1.2-.2.1-.1.3-.2h.2l.1-.2h.1l.3-.2h.3V27l.4-.1.3-.2h.4l.4-.3.2-.3V25.2l.1-.3v-.3h.1v-.2l-.1-.2h-.1l-.5-.4-.1-.1v-.2l-4-.3-9.3-.9-.5-.2-1-.5-1.4-.8-1.4-.7-1.3-.7-.9-.4-1.4-.8-.7-.3-.3-.2-.8-.4-.3-.1-3.7-1 1-.6.4-.3.5-.4.7-.4 1-.7 1.6-1 .4-.2 1.6-1.3 1-.8.7-.6 1-.8.5-.4 3.1 1 3 .8 1.4.4 4.1-3.5 1.4-1.1h.2l1.3-1 1.7-1.5.4-.4.3-.2.8-.7 1.1-.8v-.1h.1l.9.6.2.1.5.3.5.3 2.6-1.9.6.7h.1l-.3.2-.4.5-.5.5-1 1-1.1 1.2-.4.3-.6.5-.4.6-.2.3V7l-.4.6-.3.5-.5.7-.2.4-.3.4.1.2h.4l.3.1.2.1v.2l.3.2h.1v.2l-.1.1v.8h.1l.2.1.6-.3.7-.3 1.2-.7 1.5-.3.8-.2 1.1-.4 2-.6 1.4-.4h.1l.8-.2.3-.1.6-.1 1.1-.5 2.7-.9-.3 1-.2 1-.2.5-.2 1-.4 1.3-.4 1.7-.5 1.8-.4 1.5-.5 1.8-.5 1.9 2.4 2 2.4 2.1.3.2 1.3 1.2 1.8.7 2.2.8 1.3.5 1.4.6 1.7.6.5.2.5.3 1.5.5.6.3 1.6.6 1 .3.2.1.4.2 1.8.5.8.3.8.4.7.4h.2l.5.3.2.2 1 .5 1.1.6 1 .5.3.2h.2l1.4.8.3.2.4.1.8.4 1.1-.3 1.7-.5.3-.1 1-.2.3-.1.7-.2h.6l.2-.1.8-.2.9-.1.3.5.1.3.1.2.2.3.1.4.5.7h1.7l.7-.1h.8l-.1.8v.6l-.2.6v.6l-.2.6v.5l-.1.3v.6l-.1.4-.1.3-.2.5-.1.4-.3.8-.1.3v.2l-.5.7-.4.7-.2.7-.5 1.4-.4.6-.4 1-.4.8-.4.9-.5 1-.3.5-.3 1.1-.2.7-.2.5v.2l-1.7.5-2 .6-1.6.4-1 .3-1.3.3-.7.2-.7.2-1.5.5-1.2.5h-.3l-1.4.7-.4.2-.4.1v.3l-.1 1.1-.2 2.5v1.5l-.1.8v.7l-1 .4-1.2.4-.2.1-.2.2v.1l-.5.7-.3.5-.5.7-.4.7-.5.8-.3.5-.1.3-.3.6-.3.6-.3.6-.1.2-.3.4-1.1 1.9-.5.9-.2.3-.7 2-.2.4-.3 1-.5 1.4-.5 2h1.4l.6-.1h.7l2 2.6 1.8 2.6.9 1.2.4.6.3.4.8 1.2.4.5.4.6.3.4v.2l.3.3.3.5 1.2 1.7 1 1.5.8 1h3.5l2.6-.2h2.5l1.4-.1h.7l2.2-.2h2l2.6-.1 3.9.4 1.2.2h.6l1.3.2.9.2.6.2 1 .2.7.1.3.1 1.7.4.9.2.8.2h.1l.7.1.6.2.8.2.8.1 1.5.4 3.7.8.5.1 2.6.6 2.6.6 1 .3-.2.2 1 .4.5.2 1.2.4.6.2h.1l.3.2.5.2.5.2.8.3.3.1.3.2.5.2.4.2.5.2.5.3.5.2.5.2.4.2.3.1.3.2.4.2 1.3.7.6.3 1.3.7 1.2.7.4.2.7.5.2.1.6.4.3.2.5.4h.1l.2.2.3.3.5.4.2.1.2.3.3.1v.2l.3.1.1.1.4.3.4.3.2.1v.1l.6.7.2.2v.1l.6.5.3.3.5.4.2.2.3.5.2.3.2.3.4.5.3.3.1.2.6.7v.1l.3.4v.4h.8l-.1-.4H571.8l.8.1h.7l.6.1.8-.1.7-.2h.5l.4-.1 1.5-.3h.4l.3.2.6.2.3.2.3.1.4.2.4.2.1.2.1.1.3.7v.1l.3.5.3.5h4.4v.2l.2.2v.2h.1v.1l.2.2.1.2v.1l.1.2v.2l.2.2h.1v.3h.1v.2l.4.4.1.3v.2l.1.1h.1V128.5l.2.2v.2h.1v1l.1.1v.1l-.1.2-.1.3-.1.2v1.3l.1.1v.1l.1.2.3.5.3.4v.2h.1v.4l-.1.2v.8l.1.5.2.4.3.7V137.4l.1.2V138.2l.1.3.1.1.1.2.2.2.2.3.2.1.1.1h.1v.1l.2.1.1.1.2.1.3.4.4.3.1.1.1.2v.2h.1v.3l.1.2.2.3.6.6.1.3v.2l.1.2v.5l.2.1v2.6l-.2.4-.1.2-.2.1v.2l-.1.1-.2.2v.1l-.1.1v.7l-.1.1-.1.2-.2.4v.1l-.1.3-.1.1v.2l-.1.1v.1h.2l.5.2h.2l.3.2 3.1.5 2 .4h.7l.3.1h.3l.3.1h.1l1.7.3 2 .4h.2l1.8.3 1.1.2h.2l1.1.2 1.3.2 1 .2 2 .3h.2l.7.2h.5l2.2.4 1 .2.6.1h.2l.7.1h.2l.6.2h.2l.7.1.5.1 3.9.7 1.6.2 1.7.3.9.2h.6l1 .2h.7l.5.1h.4l2.3.3h1.5l.2.1h.8l.8.1 1 .1 1.3.1 2.2.2 2.1.2 1.7.2 1.8.1.8.1h.5l.4.3.8.4h2.2l.4 1.6-.6.7-.5.4-.2.2-.2.2-.1.1-.4.4-.3.3-.1.2-.6.5-.2.2h-.2l-.3.4h-.2l-.2-.1-.3.4h-.3l-.3-.2H646l-.3-.2h-.4l-.8.2-.2.2h-.1l-1.1-.2h-.5l-.4-.1h-.1l-.3.2h-.1l-.2.1-.2.1h-.5l-.3.1h-.3l-.2-.1h-.7l-.2-.1-.4-.1h-.3l-.3-.1h-.2l-.2-.1h-.2l-.1-.2h-.1v.3l.2.7.1.4.2.7.2 1v.2l.2.6v.3l.1.4v.2l-1 .5.2 1 .2.7.1.5.2.6v.3l.3 1 .4-.3.9.3h.3l2.2-.2h.5l.6-.1h.5l.6-.1 1-.1h2.7l.6.1H656l1.3.2.6.1.6.1.3.1.9.2h1l.5.1 1.5.2H666.6l.8-.1h1l.6-.1H675.4l.3 1 .1.6.2.4.1.5.2.3v.2h.1l.2.6v.3l.2.2.1.1.2.2.1.1-.4.3-.5.3-1 .6-1 .7-.4.2-.4.2-.3.2h-.2l-.7.3-.9.4-1.2.5-1 .4-1 .4-1.3.5-1.4.6-1 .4-.7.3h-.1l-.2.1-.2.1-.3.2-.8.3-.8.4-.9.4-.8.4-.8.3-.7.4-.5.3-.7.4-1.5 1-.6.5-.6.3-.7.5-.7.4-.7.4h-.1l-.3.2-.5.4-.3.2-.2.2-.5.3-.3.3-.2.1-.2.2-.3.3-.2.1-.7.6-.4.5-.3.3-.4.4-.1.1-.1.2-.2.2-.2.3-.3.4-.5.5-.4.6-.3.5-.5.7-.1.2-.6.8-.3.4-.6.8-.1.2-.1.2-.1.1-.2.3-.1.3-.4.7-.1.4-.2.5-.2.5-.4 1v.2l-.1.3-.4 1.3-.4 1.4-.1.4-.1.3-.1.2v.3l-.2.3-.2.5-.4 1-.1.2-.6 1v.1l-.1.2-.4.5-.3.6-.2.2-.5.8-.2.3-.5 1 1.6.5h.3l.3.2 1.2.2h.7l.5.1 2.2.3-.9.8-1.2 1-3.2 2.6-.1.1-1.5 1.3-1 .8-3 2.5-2.5 2-4.2 3.5-.4 1.4v.3l-.4 1.2-.2.8-.4 1.6-.2.8 1.4.2h.1l.8.2.4.2.8.3-.6.5-.4.4-.7.5-.6.5-.1.1-.6.5-.8.6-.1.1-1.3 1-.6.6-.3.2h.4l.6.1.6.2 1 .2.5.1.5.2.8.3 1.3-1 .8-.6.4-.2.6.2 2.9.5h.4l.3.1.6.1v.2l-.1.5v.6l-.1 1h1.1v1.8l-.3.2-.3.2h.3l.7.2h.7l.2-.1h.2l.2-.2-.2-.2-.2-.2v-.5h-.1l-.2-.2-.1-.1v-.1h.2v-.1h-.1l-.1-.1h-.1v-.2l.1-.1.1-.2.1-.3v-.1h2.8l-.1-.2-.5-.1v-1.4l.2-.5v-.8l.2-.7v-.7l.2-.6.1-.8h2.4l1 .1 1.5-.6 1.9-1.1.9-.2 3.1-.7 1.4-.3.6-.1.7-.3 1.2-.5 2.3-1h.4l1-.4.2-.1.4-.2.8-.3.6-.3.2-.1.6-.5 1 .2 1 .1 1 .1h1.9l.3.1h.8l.5.2 1.1.4h.3l.4.2.6.2.4.1.7.2.8.3 1 .3.6.1.5.1.7.2 1 .3.6.3 1 .5.4.2 1.4 1 1 .2.5.2h.4l1.8.6 1.4.4 1.3.1h.7l.3-.1 1.3-.2 1.6-.4h.2l.1.5h.2v.1l1 .2.7.2h.4l.2.2.8.2.6.3 1.2.6 2 1 1.8.7.5.3 1.4.7.5.2 1.6.6h.2l.3.2h.2v.1l.1.1.1.1.5.5.2.1.1.2h.2l.3.4.1.1.3.2.2.1.2.2.3.2.3.2 1.5 1 .3.2 2 .5.4.1.4.1h.3l.7.2.7.2h1l.4.1h2.5l1.4.4 1.7.2 2 .2 1.5.2v.2h.3l.3.7.5.7.2.3.1.2.1.2.5.6.2.7.3.8V256.3l.1.4v.7l.1 1 1 1.4.1.7v1.3l-.3.4.8.1 1.4.3h.7l.8.1h2.8l1 .1.7-1 .2-1.2.2-1.3-.1-1.3-.2-.7v-.3l-.1-.2-1.4-.2h-.9l-.2-.5-.2-.9-.2-1.3-.2-.7-.1-.5-.2-.4-.2-.5-.2-.4-.1-.2-.4-.5-.4-.5-.4-.5-.3-.3-.3-.4-.4-.5-.1-.2-.2-.3-.3-.4-.3-.4-.2-.2-.1-.2H728l.4.6.3.3.7.4.6.3.4.2.2.1h.1l.2.2.9.4.4.2.6.3.4.2 1 .4h.2l1.3.6h.2l1.2.5 1.8.7.7.3.4.1.1.1.9.1 1.3.2h1.6l1.5.1.3.6.5.7.9 1.2.2.3 1.4 1.7.2.3.6.7v.2l.2.1v.1l.5.7.7.8h.2l1.9 1.4 2.3 1.7 1 .7 1.2.8 1.2.8 2.3 1.6 2.7.4h.4l1.2.1.8-.2 1.1-.2h.6l.8.1.1.5 1 .4.8.1.7.2 3.6.4 1 .1h.1l.9.2 1 .1 1-.2.8-.1.8.1 1.2.2 1.5.2h.7l1 .1.4.1h.2l.3.2.4.1 1.5.4h.4l.9.2.7.2.3.1.6.4.2.1.4.3.6.5.5.6 1.2-.2-.2.3-.2.2-.1.2-.5.7-.6.9-.8 1.1h.2l1.3.2 1 .1h.3l.4.1-.1.2-.2.4-.2.4-.2.6-.3.9-.4 1-.7 1.9 6.6.6.3.2-.3.5-.2.3-.2.1-.1.2-.2.2-.4.6h-.6l-.5-.1-1.9-.2h-.4l-1.2-.2h-1.5v-.1h-.5l.3-.7.5-1.4 1.4-3.8H790l-.6.1h-3l-2 1-.1.2h-.1l-.2.1-.4.2-.4.3H782.9v.1h-.1l-.3.2-.3.2-.3.1-.5.3-.2.1-.6.3-.5.3h-.1l-.2.2-.5.2-.4.3h-.2l-.1.7-.4 1.6-.3 1.3-.1.4v.3l-.4 1.6v.2h-1.1l-2-.2-1.3-.1-1.1-.1-.1.4h-.5l-.3-.1-1.5-.2h-1.4l-1-.2-1-.1-1.1-.2-1.3-.2-.6-.2-.9-.2-.3-.1h-.2l-.6-.3h-.3l-1-.4h-.2l-.6-.3-.7-.3-.3-.1-1-.5-.3-.1-.3-.2-.7-.4-.3-.1-.3-.2-.5-.2-.7-.2-.4-.2v.4l.5.2 1.1.4 1.1.6.2.1.4.2.6.3.2.1.3.1.2.1.4.2h.2l.3.2.5.2H759.8l.3.2.4.1h.2l.6.2.3.1h.1l.2.1.9.3h.6l.6.2h.3l.4.2h.7l.5.2 1 .1 1 .1H768.5l.6.1h.6l1.3.2h.6l.4.1h.2l.6.1h.5l.7.2-.1.6-.1.4v.2l-.2.7-.4 1.6-.5.7 1.8.5 1 .2.4.1v.2h-.1l-.4 1.5-.6.4-1.4-.3-.1.3-1.7-.3h-.5l-.2.2-.4.4-.7.6-.7.7-.8.8-1.3 1.2-.7.7-.3.3-.3.2-.8.8-.6.6-.3.2-.3.3-.3.3v.4h.2V304.2h.1v1l-.1.1v.1h-.1v.1l-.1.1v.1l-.1.1-.1.1v.1l-.2.1v.2h-.1l-.1.2-.2.2v.1l-.2.2v.1l-.2.3v.3h-.1v.2h-.1v.1l-.2.5v.3h.1v.2l.4.7h.2l.1.3.2.1.2.2.2.2v.1h.1l.1.2.4.2.2.2.2.1v.1h.2v.2h.2v.2h.2l.2.3.3.3.4.4.3.3.2.2.2.2v.2h.2l.1.2.2.2.1.4.2.3.2.4.1.1.3.1.1.1h.2l.6.1h.3v.1h.3l.3.2.5.3.3.1.1.1.2.1v.1l.1.1.1.1v.1l.1.2.1.2v.2h.2l.1.3.4.4.2.3.2.1v.1l.2.2.2.2h.2l-.4.3-.2.1-.7.4-1.1.3-2 .6v.1l-.2.4-.2.3-.1.3-.1.1-.1.3-.2.5-.2.4-.1.2-.1.2-.1.3v1.2l.1.2-.2.2-.6.5-.3.2-.2.2-.4.2h-.2l-.2.2h-.1l-.7.5-.3.2-.1.2h-.2l-.2.2h-.4l-.1.1-.5.3h-.5l-.1-.1h-.1l-.1-.1V327.6l-.2-.2h-.2l-.1.1H760.8v.1l.1.2-.2.1h-.5l-.3-.1-.7-.4H758.9l-.1.3-.2.2h-.4l-.4.2h-.2l-.5.1h-.3v-.1h-.2v.1l-.4.2-.1.2-.1.1-.3.3h-.3l-.3.2-.6.2-.3.2h-.5l-.1.1H753l-.8-.3H752l-.3-.2-.5-.1-.7-.2-.4-.1h-.2v.1h-.3l-.3.2H748l-.4-.1h-.2l-.2-.2-.5-.7-.3-.1h-1l-.9.6h-.2l-.6.2-.4.2v.1l-.1.1-.3.6-.2.2-.4.2h-.1l-.4.1h-.4l-.5.3-.2.1v.1h-.2l-.5.3-.3.4h-.1l-.2.2-.2.1h-.1l-.1.2-.4.2-.2-.1-.2-.1-.1.2-.4.3-.2.3-.5.3h-.1l-.2.1h-.2l-.2.2h-2l-.4.4-.6.6-.3.3-.4.2-.3.2-.2.1-.2.1-1.1.3h-1.5l-.6.3-.1.2-.4.5-.2.3-.3.2-.2.2-.2.2-.1.1-.2.2-.1.2-.2.2-.6.2-.4.2-.4.1-.3.1-.3-.2v-.4l.1-.3h.3l.3-.5v-.1h-.3l-.6.1-.3.2v.2l-.3.2-.1.2.2.2-.3.3-.1.2v.4l-.1.1v.2l-.7.3-.3.3-.2.1-.1.1-.1.1-.2.1-.1.1-.7.2-.7.5-.2.1-.4.4-.2.2-.3.1-.3.2-.2.1-.3.3-.2.2-.3.2-.6.3-.2.2-.6.4-.4.2-.5.4-.3.2h-.2l-.4.2-.4.1h-.4l-.6.2-.2-.4-.3-.2-.2-.3-.2-.1v-.1h-.1v-.1l-.2.3-.2.4-.2.4-.9-.2-.2.3v.3l-.6 1v.1h1.1l.3.6.7.5 2.2-.4 1 .5 1 .4 1.3.6 1 .4h.2l.9.5 1 .4 1.3-.3 2.5-.4h.6v.5l-.4.5-.5.9-.6 1.8-.4 1.1 2.4-.3.2.2h1.1l.3.4-.1.4-.3.6v.1l-.2.3v.3l-.2.2-.9.8v.3l-.3.2-.3.4v.1l-.5.4-.3.4-.7.4-.4.6-.6.4-.1.1-.2.2-.1.1-.4.4-.2.2-.2.2-.1.1-.5.5-.2.2-.2.1-.2.2-.7.4-.3.3-.6.2-.4.4v.1l-.2.2v.2l.1.3.2.2.2.5H717l-.9.2v.2l.2.1h.1l.7.2.2.1h-1v-.2l-.5-.2-.5-.2h-.4l-.3-.1h-.9l.3.2-.2.2-.5.1-1 .1h-1l-.6-.5-1-.6-.6-.3-.7-.3-2.3-.9-.8-.1H704l-.1.2h-2.2l-.2.1h-.2l-.6.2-.4.3-.3.2-.2.1h-.1l-.1.1h-.1l-.1.1h-.2v.2h-.4l-.2.2h-.2l-.2.2h-.1l-.3.2h-.3l-.1.1h-.1l-.1.1-.5.1h-.2l-.1.1h-.1v.1h-.2v.1h-.4l-.1.1h-.4l-1 .3-.7.1-.6.2-.3.1-.2.1-.2.1-.3.3-.1.2-.2.2v.2l-.3.5-.4.5-.1.2h-.1l-.5.2h-.4l-.3.1-.5.3-.2.2-.2.2-.1.1-.3.3h-.1l-.2.3-.5.4-.2.2v.2h-.2v.2h-.1v.1l-.1.1-.2.4v.2l-.1.2V373.6h-.1v.4l-.1.3v.3l-.2.4-.1.1-.2.3v.9l.2.3v.3l.1.3.2.3h-.4l-.4-.1h-.8l-.3.2h-.2l-.3.2-.3.2-.3.3-.6.4-.2.2-.2.3v.2h-.1v.2l-.2.3-.2.2v.7l.3.2-.6.4-.2.2v.1l.3.1-.3.3h-.2l-.3.2H680.6l-.3.2-.2.1-1 .3h-.1l-.5.2-.1.2-.2.1-.4.3.2.2v.2l-.2.2-.6.2-.7.1-.2.1-.2.1-.4.2-.1.2-.2.3v.7l-.2.2v1.1l-.3.5-.2.3-.2.3-.2.3v.3l.2.3v.2l-.2.2-.4.3-.1.2-.3.2-.6.3-.4.3-.3.3-.3.2-.4.2-.2.2-.2.2-.2.3-.5.7-.3.5v.3l-.2.3-.2.2-.4.4-.3.4-.3.2-.2.2.6 3.5v.3l-.3.3-.5.3h-.3l-.7.3-1.3.3-.2.1h-.5l-.8.1h-.4l-1.8-.4-.5-.2-.3-.5-.6-.5v-.1l-.3-.3h-2l-2.3-2.3-2.5-1.5-1.9-1.9-.4-.6-.6-1.9.5-1.5 1.3-.1.4-10.5.1-.3v-.5l.4-.5.2-.7-.3-.5v-.7l.3-.6.3-.5.1-.3 1-.9.4-.3 1-1.4 3.1-1.3 1.2-.7 1.6-.5.7-.6.3-.4.3-1.2.1-1.1-.3-.8-.2-.3-.1-.7v-.7l-3.8-.4-1.7-.4.4-.8.5-1.3v-3l-.2-2.9h-.2l-.7.2h-.6l-2.2.3-4.2.6-.7.1h-.5l-1.2.2-1 .2-.9-1.1-.7-.8-4-4.2-.9.3-.2.1-.9.3-3.7 1.3-5.6 2-.5.2-1.9.6-3 1-1.4.5-.3.1-2.3.8-1.4.5-.5.2-2.1.7-.3.1-1.2.3-.6.2.9-1.6.2-.6v-.7l-.3-.9-1-1-.3-.4 1-.8.1-.6-.4-.6-.4-.5-.3-.4-.7-.6-.5-.4-.8-.5-.3-.3-.4-.5-.2-.6-1.3-.8-.3-.2-.3-.3-.5-.1-.3-.1-.3-.2-.2-.3-.7-.6-.2-.3-.2-.1h-.5l-.8-.2-1.3-.2-1.3-.3-.1-.2-.2-.2-.4-.3-.1-.2-.2-.2-.2-.2-.1-.2v-.4l.3-.7v-.7l-.3-.2h-.8l-.3-.7-.2-.2-.2-.3v-.7l.2-.4v-.7l.1-.2.3-.6v-.4h-.2l-.3-.4-.3-.2-.3-.4-.4-.3-.2-.3h-.1l-.5.1-2 .4-3 1h-.3l-3.2.8-1.7.3-1.7.3-.7.2h-.4l-.7.2-2.1.3-1.8.3-1.7.3h-.5l-1.4.2-2.2.4-2 .5-2.4.5-1.2.2-1.1.2-1.3.2-1.9.3h-6.6l-5.5-.3-2.9-.1-5.8-.2h-.9l-12.4-.4-.7-2v-.9l.3-2.2v-.2l.3-.6.3-1.2.2-.7.6-1 .1-.3.4-.6-.5-.7 1-.3v-.3l.3-.6 1-1.4.2-.8-.8.4-.8.4-1.2.4-.5.2-.6.2-1.4.4h-.1l-.2.1-.3.1-1.1.5-1.2.4-.4.2-.8.3-1 .4-.7-.4-1.6-.8-1.6-.8-2-.5-.8-.3-.4-.1h-.1l-.9-.4-1.2-.6-.9-.2h-.2l-1.2-.2-.8-.1-.7-.1-1.7-.6h-.4l-1-.3-1 .3-1.3.4h-.4l-.4.2h-.5l-.8.2-.6.1h-.4l-1.2.2-1.3.2-2 .4-2.3.3-2.8.3-2.8.3h-.3l-3.8.7-3 .3-.8.1-1.6.3-1.3.2-.9.2-.6.1-2 .2-2.6.2h-.3l-1 .2-2.4.4-2.2.5-2.4.7-.4-1.8-.3-1.8v-.2h-.1v-.8l-.1-.2-.2-.5-.2-.4-.2-.4-.2-.2v-.2l-.2-.2-.2-.6-.4-.7V323.6l-.1-.1-.6-.6-.1-.1-.1-.2-.1-.2v-.2l-.2-.1-.2-.3-.2-.4-.2-.5-.1-.3-.2-.3-.7-1-.7-1-.6-.9v-.2l-2.2-3.8-.3-.2-.8-1.4-.4-.8-.4-.8-.7-1.3-.7-1.3-.8-1.5-.5-1.1-.5-1-1.8-.5-3.5-.8-1.4.2-1.5.1-2 .3h-.5l-.4.2-.8.1-.9.2-.8.2-.2.1-1 .3-.6.1-.5.1-.9.3-1.2.4-.4.2-.6.2-1.1.4-1.8.6-.4.1-.4.1-.6.2-.5.2-1 .6-.6.1-1 .3h-.2l-2 .7-.8.2h-.2l-.6.2-1 .4-1 .2h-.2l-.3.1-.5.1-1 .3H416.5l-2.2.6-1.7.5-4 1.2-2 .3-1 .2-1.8.3-1.2.2-1.2.2-1.5.3-.6.2-1.2.3-1.6.4-1.2.2-.9.1h-.5l-1 .3-.3 1-.1.5-.2 1 .2 1 .5 1.1.5 1.2.4.9v.1l.3.6.4.8.8 1.8.4 1 .4.9.2.3 2.5 5.5 1.8 4v.2l1.6 3.6.3.8.6 1.7V344.6l-.2.3-.3.5-.5.7-.5.7-1 1.5-.6.8-.6.8-1.2 1.8-.9 1.2-.8 1.2-.6.8-.3.5-.2.4-.2.3h-1.5l-1.6-.1h-.4l-3-.1-3.2-.2.3-.5h-.7l-.9.2h-1.2l-.7.1h-1.6l-.6-.2h-.5l-1.2-.1-3-.1-1-.2h-1.1l-.9-.1-1-.1h-.3l-.6-.1-1.8-.1-1.6-.1-2.3-.1h-1.4l-2.4-.1h-.4l-3.8-.2-.2-1-.1-.5v-3.7l-.2-2.3-.4-2.3v-.7l-.4-2.2-2 .1-1.9.1-2.2.1h-1.1l-3 .2h-4.2l-2.4-.2H336.2l-.7-.1 1.9-6.4-2.1-.8-1-.3-1.1-.4-2.3-.9-1.3-.5-1.4-.5-1-.3-1.1-.3-.6-.3-.3-.1-.3-.2h-.3l-.7-.4-.8-.2-.7-.3-.3-.2-.3-.2-.3-.1-.5-.3-.5-.3-.4-.2-.4-.2-.3-.2-.4-.2-1-.4-.8-.4-.4-.2h-.2l-.2-.2-1.3-.8-.5-.2-.1-.1-.2-.1-.6-.3-.4-.2-.6-.3h-.2l-.2-.2h-.1l-.4-.3-.7-.4-.4-.2-.4-.3-.5-.3-1.1-.7-1-.6-1-.7h-.2l-1.3-.8-1-.7-1.1-.6.2-2V314.8l.1-.4v-.5l-1.3.4-2.7 1-1.2.6-1.3.5-1.3.4-1.3.5-1.9.7-1.3.5-1.5.6-2.6 1-1.3.4-1.3.5-.4.1-.3.2-3.9 1.4-1.4.6-1.6.6-1.5.5-.7.3-.6.2-.2.1-2.6 1-1.4.6-.4.2-.6.2-.4.2-.7.6-1.4 1-.5-.6-.4-.4-.4-.4-.8-.8-.4-.3-.4-.4-.9-1-.4-.4-1-1-.5-.4-.5-.5-.3-.4-.6-.5-.5-.5-.5-.5-.4-.4-.8-.8-.5-.4-.6-.5-1.2-1-.6-.6-.6-.6-.2-.1-.2-.2-.3-.3-.4-.4-.4-.3-1.5-1.4-.1-.1-.1-.1-.7-.6-.3-.3-.3-.3-.9-.9-.5-.5-.4-.3.5-.1.4-.2.3-.4.2-.5v-.3l-.2-.4-.2-.2-.6.2-.5.2-.3.2-.3.1-.2.1-1 .5-1 .6-.6.3-1.9 1-1.2.7-.2.2-11.7 6.4-.5.3-1.3.6-1.2.5-.6.4-1 .4-.7.4-1.2.3-.8.2-.5.1-1.3.3-.8.2h-1.3l-1 .1H214.7l-1.4-.1h-.4l-1.3-.2-1.5-.3-.7-.2-.5-.2-1.5-.5-1.2-.5-.6-.1-.7-.2-.7-.1h-.4l-.4-.1-1-.1h-2.7l-.4.1-1.2.1-.8.1-.6.1-1 .2-.4.1-.6.2-.7.2-.5.2-1 .4-.1-.5-.3-1.3v-.2l-.1-.4-.1-.6-.2-.5-.5-.6.3-.5V313.8l-.5-2.6-.1-.4-.2-.3v-.4l-.3-.5-.1-.4v-.2l-.3-1-.2-.7h-.1v-.3l-.2-.8-.2-.8-.3-.7-.2-.3-.1-.3-.3-.5-.1-.2-.1-.3-.3-.4h-2.2l-2.1.2h-2l-1.6.1h-1.6l-.3.1H175.2l-.8.2h-.5l-.4.1-.8.2H170l-1.3-.1h-.6l-.4-.1h-.5l-.7-.1-.8-.1-.9-.1h-1.4v-.1l-.2-.2-.7.2-1 .3v-.2l-1.4.4-1.3.4-.5.1h-.2l-.5.2-.7.1-.6.2-.5.1-.6.2h-.4l-1.1.2-.8.4-.6.2-.5.2-.7.3-.7.3h-.5l-.4.2h-.6l-.4.2-.8.3-.5.2-.7.2-1.6.3-2.7.6-1 .2-.9.1-1.5.3-2.1.2h-.5l-1.3.2h-4.7l-.7.2-1.7.6-3.5 1.1-3.2 1.1-2.5.8-2.7 1-1 .3-1 .3-2 .7-1.1.3-1.1.4-1.8.6-2.8 1-1.6.5-1.2.4-1.7.5-5 1.7-5.2 1.8-5.2 1.7h-.1v2.9l.2.6-.2.3v.1l-.6.8-.4.7-.2.3-.1.3-.2.3-.2.4.1.3-.1.7 4.2-.3h.4l3.7-.5 2-.1.8-.1 1-.1.8-.1.7-.1 1-.2.8-.2h.4l.2.2.3 1.2.2 1.1-2.8 1.2-.7.3H94l-1 .1h-.3l-1.3.1H90l-1.4.2H86l-.6.1h-.8l-1.4-.2-1-.1-1.4-.3-1.1-.1h-.3l-1.4-.3-1.3-.1-1.3-.1-1.2-.1-1.2-.1h-.1l-1.3-.1-1.3-.2h-1.2v-.1l-1.2-.4-1-.4h-.2l-.3-.3h-.1l-.3-.3h.2v-.2l-.1-.3v-.2l-.5.1-.3.1h-.2l-.5.2-.2-.2-.3.2-.4.2h-.1l-.2.1-.3.2-.3.2-.4.1-2 .8-.3.2-.5.2-.8.5-.5.2-.3.2-2 1.1-.8.5-1 .8-1.3.8-2 1.7.3.2h.1v.1l.3.2.4.2.1.1.2.1.3.2.2.1.2.2.2.1.3.2.1.1.2.1h.1l.4.1h.8l-.4.7-.3.5v.2l-.2.2h-.6l-.2-.1-.6-.1H52.2l-.2.3h-.5l-.2-.2h-.2l-.4-.3-.2-.1-.3-.1-.4-.3-.3-.1-.1-.1-.5-.3-.5-.3h-.2l-.6-.4-.5-.3-.6-.3.7-2.4h2.5v-.1h1.8l.2-.1h.1v.1h-.4l-1.2 1.2.4.2 1.6-1.4H52v-.1l.2-.1v.1h.3l1.4-1 1.1-.8.7-.4 2.1-1.2.5-.2.5-.3.6-.3.8-.4.8-.4h-.7l.3-.1H59h.2-.4v-.1h-1.6l-.1-.2-.2-.4-.1-.3-.3-.5.7-.1h.4l.4-.1H59l.1-.1h.9l.1-.2-1.7-.4H58l-.9-.3-.3-.1h-.2l-.2-.1h-.1l-.1-.1-1.6-.9-1.2.9-4.8 2-1.2.4h-2.1l-1-.3-.8-.5-1.2-.7-1.4-.8-2-1.6-2.2-1.6-.8-1-1.7-.3-5.4-2-.7-.6-.1-1-1.7-1.4-1.6-.8 1-.8h.2l.1-.2-.2-.1-.1-.1-.7-.3h-.4l-.7-.1H23.1l-.2-.1h-.5v-.1h.2l.1-.3.1-.3.2-.3 2 .3 2.4-.2V316l-.1-.2-.1-.3 1.2-.1h.4v-.2l-.1-.2v-.2l-.1-.3v-.1l-.1-.2H28l-.4.1h-.9v-.2l-.1-.2v-.2l-.1-.2-.4-1-.2-.1h-.3l-.3-.2H25l-.2-.1h-.3l-.3-.1H23.5l-.2.1v.1l.1.4.1.2v.4h.1V313.9l-.1.3v.2l-.1.3v.7l-.1.6v.1l-.2.1-.2.1-.3.2h-.8l-.5-.2-.4-.2-.6.2H20l-.6-.2h-.3l-.5-.2-2.6-.5V314.7l.1-.3V313.7l-.1-.4-.2-.6-.1-.3v-.5l.1-.4h-1.1l-.8.1h-.1l-1.1.2h-.4l-1.3.3h-.2l-.2.1.8 1 .6.6h-.1v.1h.2l1.3.6.1.1v.1h.1V315l-.1.1h-.1l-.2.2H13v.1l.2.1v.1h-.1l-.3.2-.5.2-.7.6-4.7-1.3-1.2-.7-.3-.2-.8-.2-.8-.1-.6-.8-.1-.6v-1L1 304.5zM493.3 68l.2-.1.2-.1 1-.4 1-.4v.2l-2.1.7-.3.1z"/></svg>
